<?xml version="1.0" encoding="UTF-8"?> <svg xmlns="http://www.w3.org/2000/svg" width="32" height="32" viewBox="0 0 32 32" fill="none"><path d="M10.6654 6.66602H7.9987C7.29145 6.66602 6.61318 6.94697 6.11308 7.44706C5.61298 7.94716 5.33203 8.62544 5.33203 9.33268V25.3327C5.33203 26.0399 5.61298 26.7182 6.11308 27.2183C6.61318 27.7184 7.29145 27.9993 7.9987 27.9993H15.5947" stroke-width="2" stroke-linecap="round" stroke-linejoin="round" style="stroke: rgb(29, 73, 144);" clip-path="url(#clip0_1679_23009)"></path><path d="M24.0013 15.9993V9.33268C24.0013 8.62544 23.7204 7.94716 23.2203 7.44706C22.7202 6.94697 22.0419 6.66602 21.3346 6.66602H18.668" stroke-width="2" stroke-linecap="round" stroke-linejoin="round" style="stroke: rgb(29, 73, 144);" clip-path="url(#clip0_1679_23009)"></path><path d="M10.668 6.66667C10.668 5.95942 10.9489 5.28115 11.449 4.78105C11.9491 4.28095 12.6274 4 13.3346 4H16.0013C16.7085 4 17.3868 4.28095 17.8869 4.78105C18.387 5.28115 18.668 5.95942 18.668 6.66667C18.668 7.37391 18.387 8.05219 17.8869 8.55228C17.3868 9.05238 16.7085 9.33333 16.0013 9.33333H13.3346C12.6274 9.33333 11.9491 9.05238 11.449 8.55228C10.9489 8.05219 10.668 7.37391 10.668 6.66667Z" stroke-width="2" stroke-linecap="round" stroke-linejoin="round" style="stroke: rgb(29, 73, 144);" clip-path="url(#clip0_1679_23009)"></path><path d="M10.668 14.666H16.0013" stroke-width="2" stroke-linecap="round" stroke-linejoin="round" style="stroke: rgb(29, 73, 144);" clip-path="url(#clip0_1679_23009)"></path><path d="M10.668 20H14.668" stroke-width="2" stroke-linecap="round" stroke-linejoin="round" style="stroke: rgb(29, 73, 144);" clip-path="url(#clip0_1679_23009)"></path><path d="M18.668 23.3333C18.668 24.2174 19.0192 25.0652 19.6443 25.6904C20.2694 26.3155 21.1172 26.6667 22.0013 26.6667C22.8854 26.6667 23.7332 26.3155 24.3583 25.6904C24.9834 25.0652 25.3346 24.2174 25.3346 23.3333C25.3346 22.4493 24.9834 21.6014 24.3583 20.9763C23.7332 20.3512 22.8854 20 22.0013 20C21.1172 20 20.2694 20.3512 19.6443 20.9763C19.0192 21.6014 18.668 22.4493 18.668 23.3333Z" stroke-width="2" stroke-linecap="round" stroke-linejoin="round" style="stroke: rgb(0, 174, 239);" clip-path="url(#clip0_1679_23009)"></path><path d="M24.668 26L28.0013 29.3333" stroke-width="2" stroke-linecap="round" stroke-linejoin="round" style="stroke: rgb(0, 174, 239);" clip-path="url(#clip0_1679_23009)"></path><defs><clipPath id="clip0_1679_23009"><rect width="32" height="32" fill="white"></rect></clipPath></defs></svg> 